<?xml version="1.0" encoding="utf-8"?>
<!-- Generator: Adobe Illustrator 24.0.3, SVG Export Plug-In . SVG Version: 6.00 Build 0)  -->
<svg version="1.1" id="Layer_1" focusable="false" xmlns="http://www.w3.org/2000/svg" xmlns:xlink="http://www.w3.org/1999/xlink"
	 x="0px" y="0px" viewBox="0 0 512 512" style="enable-background:new 0 0 512 512;" xml:space="preserve">
<style type="text/css">
	.st0{fill:#F87A25;}
</style>
<path class="st0" d="M120.2,221.6c2.7,7.1,5.2,13.2,7.2,19.4c1.1,3.3,2.8,4.3,6.2,4.1c5.4-0.3,10.8-0.1,16.9-0.1
	c-1.3,2.4-3.3,3.2-4.7,4.4c-2.1,1.7-4.3,3.3-6.5,4.9c-6.6,5-6.6,5-3.6,12.8c1.8,4.8,3.7,9.5,5.5,14.3c-0.3,0.2-0.5,0.4-0.8,0.7
	c-3.9-2.9-7.7-5.7-11.6-8.6c-2.8-2.1-5.6-5.6-8.5-5.8c-3.2-0.2-5.9,3.7-8.8,5.8c-3.9,2.8-7.7,5.7-12.2,9.1
	c1.3-5.8,3.5-10.3,5.2-14.9c3.1-8.5,3.2-8.5-4-14c-3.5-2.6-7-5.3-10.4-8.8c5.5,0,11-0.3,16.4,0.1c3.8,0.2,5.5-1.1,6.6-4.6
	C115,234.4,117.5,228.5,120.2,221.6z"/>
<path class="st0" d="M140.5,246.1c-5.1,3.8-10,7.7-15.2,11.3c-1.9,1.4-2.3,2.6-1.4,4.8c2.6,6.4,5,12.9,6.7,19.9
	c-4.7-3.5-9.4-7-14.1-10.5c-6.1-4.5-6.1-4.5-12-0.1c-4.7,3.5-9.5,7.1-15,10.1c2-5.4,4-10.7,6.1-16.1c2.4-6.3,2.4-6.3-3.1-10.4
	c-4.1-3.1-8.2-6.2-12.2-10.1c5.6,0,11.3-0.2,16.9,0.1c3.2,0.1,4.9-0.7,5.9-3.9c2.1-6.4,4.6-12.5,7.3-19.6c2.7,7.2,5.2,13.5,7.4,19.9
	c0.9,2.8,2.3,3.8,5.3,3.7c5.7-0.2,11.4-0.1,17-0.1C140.3,245.4,140.4,245.8,140.5,246.1z"/>
<path class="st0" d="M331.4,213.1c2.7,7.3,5.2,13.8,7.5,20.3c0.8,2.4,2,3.5,4.8,3.3c5.8-0.2,11.6-0.1,17.4-0.1
	c0.2,0.3,0.3,0.6,0.5,0.9c-3.3,2.5-6.6,5-9.9,7.4c-7.8,5.8-7.8,5.8-4.3,14.8c1.7,4.5,3.4,9,4.5,14c-5.9-4.4-11.8-8.6-17.6-13.2
	c-2-1.6-3.4-1.9-5.6-0.1c-5.7,4.6-11.7,8.9-18.3,12.8c2.2-5.9,4.2-12,6.8-17.8c1.6-3.6,1.2-5.7-2.2-7.8c-4.8-3.2-9.3-6.9-13.7-11.1
	c5.8,0,11.6-0.2,17.3,0.1c2.9,0.1,4.4-0.8,5.3-3.6C326.1,226.7,328.7,220.3,331.4,213.1z M351,241c-0.1-0.3-0.1-0.5-0.2-0.8
	c-3.2,0-6.4-0.2-9.6,0.1c-2.9,0.3-4.1-1-4.9-3.5c-1.4-4.3-3.1-8.4-5-13.3c-2,5.2-3.8,9.7-5.4,14.3c-0.7,1.9-1.6,2.5-3.6,2.5
	c-3.5,0-7.1-0.4-11.1,0.4c3.2,2.4,5.9,4.8,8.8,6.6c2.9,1.7,3,3.5,1.7,6.3c-1.5,3.1-2.5,6.5-3.8,9.8c3.5-1.7,6.6-3.6,9.2-6
	c2.9-2.7,5.1-2.9,8.2-0.1c2.6,2.3,5.3,4.6,9.5,6.5c-1.7-4.3-2.8-7.8-4.4-11.2c-1-2.2-0.5-3.4,1.4-4.7C345.1,245.6,348,243.3,351,241
	z"/>
<path class="st0" d="M246,221.8c2.7,7.3,5.2,13.8,7.5,20.3c0.8,2.4,2,3.5,4.8,3.3c5.8-0.2,11.6-0.1,17.4-0.1
	c0.2,0.3,0.3,0.6,0.5,0.9c-3.3,2.5-6.6,5-9.9,7.4c-7.8,5.8-7.8,5.8-4.3,14.8c1.7,4.5,3.4,9,4.5,14c-5.9-4.4-11.8-8.6-17.6-13.2
	c-2-1.6-3.4-1.9-5.6-0.1c-5.7,4.6-11.7,8.9-18.3,12.8c2.2-5.9,4.2-12,6.8-17.8c1.6-3.6,1.2-5.7-2.2-7.8c-4.8-3.2-9.3-6.9-13.7-11.1
	c5.8,0,11.6-0.2,17.3,0.1c2.9,0.1,4.4-0.8,5.3-3.6C240.7,235.3,243.2,229,246,221.8z M265.6,249.6c-0.1-0.3-0.1-0.5-0.2-0.8
	c-3.2,0-6.4-0.2-9.6,0.1c-2.9,0.3-4.1-1-4.9-3.5c-1.4-4.3-3.1-8.4-5-13.3c-2,5.2-3.8,9.7-5.4,14.3c-0.7,1.9-1.6,2.5-3.6,2.5
	c-3.5,0-7.1-0.4-11.1,0.4c3.2,2.4,5.9,4.8,8.8,6.6c2.9,1.7,3,3.5,1.7,6.3c-1.5,3.1-2.5,6.5-3.8,9.8c3.5-1.7,6.6-3.6,9.2-6
	c2.9-2.7,5.1-2.9,8.2-0.1c2.6,2.3,5.3,4.6,9.5,6.5c-1.7-4.3-2.8-7.8-4.4-11.2c-1-2.2-0.5-3.4,1.4-4.7
	C259.6,254.3,262.6,251.9,265.6,249.6z"/>
<path class="st0" d="M449.5,237.6c-5.1,3.8-10.1,7.6-15.2,11.3c-1.9,1.3-2.4,2.6-1.4,4.8c2.7,6.4,5,12.9,6.9,20
	c-2.1-1.5-4.2-3-6.3-4.6c-3.2-2.4-6.7-4.5-9.6-7.3c-3.3-3.2-5.8-2.7-9.1,0.1c-5,4.2-10.4,7.9-16.4,11.3c2.5-6.4,4.8-12.8,7.4-19.1
	c1-2.4,0.8-3.8-1.5-5.4c-5.2-3.6-10.2-7.5-15-12.1c5.9,0,11.8-0.1,17.7,0.1c2.6,0.1,3.9-0.7,4.8-3.3c2.3-6.5,4.9-13,7.7-20.3
	c2.3,6.2,4.3,11.5,6.3,16.7c2.5,6.8,2.5,6.8,10,6.8c4.5,0,9,0,13.5,0C449.3,237,449.4,237.3,449.5,237.6z M432.5,264
	c-0.8-4.4-2.3-7.6-3.8-10.8c-1.3-2.8-0.7-4.4,1.8-6c3-1.9,5.7-4.2,9.4-7c-4.5,0-7.8-0.1-11.1,0c-2.4,0.1-3.7-0.6-4.4-3
	c-1.4-4.4-3.2-8.6-5.1-13.8c-2.1,5.4-3.9,9.8-5.4,14.2c-0.7,1.9-1.6,2.6-3.6,2.5c-3.5-0.1-7.1,0-11.6,0c3.9,3,6.9,5.4,10.1,7.6
	c2,1.4,2.3,2.7,1.3,4.8c-1.5,3.4-2.7,7-4.1,10.5c3.6-1.7,6.8-3.6,9.5-6.1c2.9-2.8,5.1-2.3,7.9,0.1C426,259.5,429,261.4,432.5,264z"
	/>
<path class="st0" d="M537.5,237.7c-5,3.7-9.8,7.5-14.9,11.1c-2.3,1.6-2.5,3-1.5,5.5c2.6,6.3,4.9,12.7,6.6,19.6
	c-4.9-3.7-9.8-7.3-14.7-11c-5.6-4.2-5.6-4.2-11.1,0c-4.9,3.7-9.9,7.3-15.5,10.5c2.5-6.4,4.8-12.9,7.4-19.2c1-2.5,0.7-3.8-1.6-5.4
	c-5.2-3.6-10.1-7.5-14.9-12.1c5.9,0,11.8-0.1,17.8,0.1c2.7,0.1,3.9-0.9,4.7-3.3c2.3-6.5,4.9-12.9,7.7-20.3
	c2.8,7.4,5.3,13.9,7.6,20.5c0.8,2.3,2,3.2,4.5,3.1c5.9-0.2,11.9-0.1,17.8-0.1C537.4,237,537.5,237.3,537.5,237.7z M486.8,240.2
	c4,3,7.1,5.5,10.3,7.8c1.7,1.2,2,2.3,1.3,4.2c-1.5,3.6-2.9,7.3-4.3,10.9c4-1.9,7.5-4.3,10.7-6.9c2-1.6,3.4-1.5,5.4,0
	c3.2,2.6,6.6,4.9,9.9,7.4c-0.7-4-1.8-7.4-3.3-10.6c-1.1-2.4-0.8-3.9,1.5-5.4c3.1-2,6-4.5,9.7-7.3c-4.4,0-7.7-0.2-10.9,0.1
	c-2.8,0.3-3.8-0.9-4.6-3.3c-1.4-4.3-3.1-8.4-5.1-13.5c-1.8,4.7-3.6,8.4-4.6,12.4c-1,3.8-3,4.8-6.6,4.4
	C493.4,240,490.6,240.2,486.8,240.2z"/>
</svg>
