<?xml version="1.0" encoding="utf-8"?>
<!-- Generator: Adobe Illustrator 24.0.3, SVG Export Plug-In . SVG Version: 6.00 Build 0)  -->
<svg version="1.1" id="Layer_1" focusable="false" xmlns="http://www.w3.org/2000/svg" xmlns:xlink="http://www.w3.org/1999/xlink"
	 x="0px" y="0px" viewBox="0 0 97.7 97.7" style="enable-background:new 0 0 97.7 97.7;" xml:space="preserve">
<style type="text/css">
	.st0{fill:#FFFFFF;}
</style>
<path class="st0" d="M48.8,97.7c-12.5,0-24.9,0-37.4,0C4.3,97.7,0,93.5,0,86.3c0-25.1,0-50.1,0-75.2C0,4.4,4.4,0,11.1,0
	c19.1,0,38.2,0,57.3,0c2.9,0,5.5,0.8,7.5,2.7c6.6,6.4,13.3,12.7,19.4,19.6c1.7,1.9,2.4,4.3,2.4,6.9c0,19.2,0,38.4,0,57.5
	c0,6.5-4.4,10.9-11,10.9C74.1,97.7,61.5,97.7,48.8,97.7z M48.8,90.7c12.5,0,24.9,0,37.4,0c3.3,0,4.5-1.2,4.5-4.5
	c0-18.8,0-37.5,0-56.3c0-1.8-0.5-3.2-1.8-4.4c-5.6-5.5-11.2-11.1-16.8-16.7c-0.6-0.6-1.1-1.5-2-1.1c-0.8,0.4-0.4,1.3-0.4,2
	c0,6.5,0,13,0,19.4c0,3.5-2,5.7-5.5,5.7c-14.9,0.1-29.9,0.1-44.8,0c-3.5,0-5.5-2.3-5.5-5.7c0-6.3,0-12.6,0-18.9c0-1,0.8-2.6-0.7-3
	c-1.4-0.4-3.1-0.5-4.6,0.4C7.1,8.6,7,10.1,7,11.7C7,36.5,7,61.2,7,86c0,3.6,1.1,4.7,4.7,4.7C24.1,90.7,36.5,90.7,48.8,90.7z M42,7
	C35.7,7,29.4,7,23,7c-1.6,0-2.2,0.4-2.2,2.1c0.1,5.6,0.1,11.3,0,16.9c0,1.6,0.6,2,2,2c12.6,0,25.2,0,37.9,0c1.5,0,2-0.4,2-2
	c-0.1-5.6-0.1-11.3,0-16.9c0-1.7-0.6-2.1-2.2-2.1C54.4,7,48.2,7,42,7z"/>
<path class="st0" d="M68.2,62.8C67.6,73.3,60.5,81.9,48.9,82c-11,0.1-19.3-8.1-19.3-19.2c0-10.4,7.6-19.1,19.1-19.2
	C59.7,43.5,67.6,51.7,68.2,62.8z M48.6,74.8c7,0.1,11.9-4.9,12.3-11.5c0.4-6.9-5.9-12.8-11.9-12.6c-7,0.3-11.9,4.9-12.3,11.6
	C36.3,69.2,42.7,75.4,48.6,74.8z"/>
</svg>
