<?xml version="1.0" encoding="utf-8"?>
<!-- Generator: Adobe Illustrator 24.0.3, SVG Export Plug-In . SVG Version: 6.00 Build 0)  -->
<svg version="1.1" id="Layer_1" focusable="false" xmlns="http://www.w3.org/2000/svg" xmlns:xlink="http://www.w3.org/1999/xlink"
	 x="0px" y="0px" viewBox="0 0 512 512" style="enable-background:new 0 0 512 512;" xml:space="preserve">
<style type="text/css">
	.st0{fill:#3F68B1;}
	.st1{fill:#FFFFFF;}
	.st2{font-family:'ArialMT';}
	.st3{font-size:50.3906px;}
</style>
<path class="st0" d="M471,150.1V392c0,22.3-18.1,40.3-40.3,40.3H81.3C59.1,432.3,41,414.2,41,392V150.1c0-22.3,18.1-40.3,40.3-40.3
	h73.9l10.3-27.6c5.9-15.7,20.9-26.1,37.7-26.1h105.4c16.8,0,31.8,10.4,37.7,26.1l10.4,27.6h73.9C452.9,109.8,471,127.8,471,150.1z
	 M356.8,271c0-55.6-45.2-100.8-100.8-100.8S155.2,215.4,155.2,271S200.4,371.8,256,371.8S356.8,326.6,356.8,271z M329.9,271
	c0,40.7-33.2,73.9-73.9,73.9s-73.9-33.2-73.9-73.9s33.2-73.9,73.9-73.9S329.9,230.3,329.9,271z"/>
<g>
	<text transform="matrix(1 0 0 1 170.9834 252.0938)" class="st1 st2 st3">Click Me!</text>
	<text transform="matrix(1 0 0 1 118.4932 312.5625)" class="st1 st2 st3">getting Photo</text>
	<text transform="matrix(1 0 0 1 169.3037 252.3115)" class="st2 st3">Click Me!</text>
	<text transform="matrix(1 0 0 1 116.8135 312.7803)" class="st2 st3">getting Photo</text>
</g>
</svg>
