<?xml version="1.0" encoding="utf-8"?>
<!-- Generator: Adobe Illustrator 24.0.3, SVG Export Plug-In . SVG Version: 6.00 Build 0)  -->
<svg version="1.1" id="Layer_1" focusable="false" xmlns="http://www.w3.org/2000/svg" xmlns:xlink="http://www.w3.org/1999/xlink"
	 x="0px" y="0px" viewBox="0 0 180 180" style="enable-background:new 0 0 180 180;" xml:space="preserve">
<style type="text/css">
	.st0{fill:url(#SVGID_1_);}
	.st1{fill:url(#SVGID_2_);}
</style>
<linearGradient id="SVGID_1_" gradientUnits="userSpaceOnUse" x1="12.2659" y1="79.2917" x2="208.2659" y2="106.2917">
	<stop  offset="0" style="stop-color:#68C0FF"/>
	<stop  offset="1" style="stop-color:#0A91E5"/>
</linearGradient>
<rect y="0" class="st0" width="180" height="180"/>
<linearGradient id="SVGID_2_" gradientUnits="userSpaceOnUse" x1="30.6531" y1="89.6614" x2="153.3469" y2="89.6614">
	<stop  offset="0" style="stop-color:#FFFFFF"/>
	<stop  offset="1" style="stop-color:#FFFFFF"/>
</linearGradient>
<path class="st1" d="M153.3,62.8v69c0,6.4-5.2,11.5-11.5,11.5H42.2c-6.4,0-11.5-5.2-11.5-11.5v-69c0-6.4,5.2-11.5,11.5-11.5h21.1
	l2.9-7.9C67.9,39,72.2,36,77,36H107c4.8,0,9.1,3,10.8,7.5l3,7.9h21.1C148.2,51.3,153.3,56.5,153.3,62.8z M120.8,97.3
	c0-15.9-12.9-28.8-28.8-28.8S63.2,81.5,63.2,97.3s12.9,28.8,28.8,28.8S120.8,113.2,120.8,97.3z M113.1,97.3
	c0,11.6-9.5,21.1-21.1,21.1S70.9,109,70.9,97.3S80.4,76.2,92,76.2S113.1,85.7,113.1,97.3z"/>
</svg>
