<?xml version="1.0" encoding="utf-8"?>
<!-- Generator: Adobe Illustrator 24.0.3, SVG Export Plug-In . SVG Version: 6.00 Build 0)  -->
<svg version="1.1" id="Layer_1" xmlns="http://www.w3.org/2000/svg" xmlns:xlink="http://www.w3.org/1999/xlink" x="0px" y="0px"
	 viewBox="0 0 48 42" style="enable-background:new 0 0 48 42;" xml:space="preserve">
<style type="text/css">
	.st0{fill:#FFFFFF;}
</style>
<path class="st0" d="M24,42c-6.1,0-12.2,0-18.2,0C1.6,42,0,40.3,0,36.2c0-8.2,0-16.3,0-24.5C0,7.7,1.7,6.1,5.8,6
	c0.7,0,1.5-0.1,2.2,0c2.9,0.2,5.4,0.2,6.2-3.5c0.3-1.6,2.1-2.4,3.8-2.4C22,0,26,0,30,0c2.3,0,3.7,1.4,4.3,3.5c0.5,2,1.6,2.6,3.6,2.5
	c1.7-0.2,3.5-0.1,5.2,0c3.1,0.2,4.8,1.9,4.8,4.9c0,8.7,0,17.3,0,26c0,3.3-1.8,5-5.2,5C36.5,42,30.2,42,24,42z M24,39c6,0,12,0,18,0
	c1.6,0,3-0.2,3-2.4c0-8.4,0-16.8,0-25.2C45,9.7,44.1,9,42.5,9c-1.8,0-3.7-0.2-5.5,0c-2.9,0.3-4.6-0.5-5.1-3.5
	c-0.3-1.9-1.6-2.7-3.6-2.5c-2.4,0.2-4.8,0-7.2,0c-4,0-4.1,0-5.3,3.7c-0.6,1.7-1.4,2.5-3.2,2.3C10.4,8.9,8.3,9.1,6.2,9
	C3.9,8.9,2.9,9.7,3,12.1C3.1,20,3.1,28,3,35.9c0,2.5,1,3.2,3.3,3.1C12.2,38.9,18.1,39,24,39z"/>
<path class="st0" d="M24,35c-6.2,0-11.4-5.1-11.4-11.1c0.1-6,5.2-11,11.3-11c6.2,0,11.4,5.1,11.4,11.1C35.2,30.1,30.1,35,24,35z
	 M23.9,15.9c-4.6,0-8.3,3.7-8.2,8.2c0.1,4.6,3.7,8,8.4,8c4.6,0,8.3-3.7,8.3-8.2C32.3,19.4,28.6,15.9,23.9,15.9z"/>
</svg>
